<svg width="121" height="60" viewBox="0 0 121 60" fill="none" xmlns="http://www.w3.org/2000/svg">
<path d="M80.4052 30.9741C80.6643 31.9923 80.8631 33.0407 81.1884 34.0468C83.3996 40.7646 89.7318 45.0724 96.6544 44.5844C103.372 44.1145 109.18 38.9812 110.283 32.5466C111.446 25.7324 108.102 19.0568 102.125 16.2673C95.6844 13.2609 88.0508 14.9478 83.6586 20.5751C80.2064 24.9974 76.9589 29.5824 73.7175 34.1673C73.2174 34.8783 72.9885 36.0049 73.0909 36.8846C74.1573 45.7894 68.7108 55.363 60.4747 58.8876C55.8777 60.8517 51.359 60.1829 48.4671 57.1343C47.3163 55.9233 46.9307 54.9834 48.1417 53.3025C57.3358 40.5176 66.3008 27.57 75.5009 14.7912C82.0741 5.66945 93.895 2.36177 104.481 6.37437C114.404 10.1339 121.369 20.8523 120.459 30.95C119.374 42.9999 111.638 52.212 100.42 54.2002C91.9369 55.7064 84.3093 53.5736 77.9591 47.5065C76.5131 46.1208 75.8262 44.7109 76.0733 42.5058C76.5432 38.3064 75.8383 33.8239 80.3931 30.9741H80.4052Z" fill="white"/>
<path d="M51.6482 17.7012C52.7387 18.4905 53.6063 19.1231 54.7209 19.9244C58.1551 15.0623 61.4267 10.2906 64.885 5.65138C65.4875 4.84404 66.8672 4.61509 67.8854 4.12105C67.8071 5.24168 68.1204 6.62139 67.5781 7.43475C64.3668 12.2667 60.9628 16.9602 57.5466 21.8042C58.6311 22.5935 59.583 23.2863 60.8242 24.184C63.7161 20.0931 66.5298 16.1106 69.3494 12.1221C70.0423 11.1401 70.5906 9.99534 71.4702 9.21813C72.0848 8.67589 73.1331 8.62769 73.9947 8.35657C74.0549 9.24825 74.2417 10.158 74.1272 11.0256C74.0549 11.5618 73.5247 12.0438 73.1753 12.5318C70.1206 16.8818 67.0961 21.2499 63.9873 25.5637C61.4929 29.0281 58.5407 31.9441 54.3775 33.4443C53.534 33.7516 52.7869 34.5891 52.2146 35.3482C49.7263 38.6197 47.3946 42.0118 44.8581 45.2472C37.9476 54.0737 25.964 57.0861 15.6011 52.7C5.03943 48.2355 -0.792692 37.7341 0.689439 25.865C1.99082 15.3876 10.6727 6.73586 21.5236 5.05491C30.4887 3.66918 37.8271 6.72984 44.0388 13.0801C45.2618 14.3273 45.3883 15.3696 44.6894 17.0505C43.5929 19.6894 43.0326 22.5513 42.2132 25.3047C41.8879 26.3952 41.4661 27.4556 40.8034 29.3293C40.0744 27.07 39.7008 25.636 39.1586 24.2684C36.5558 17.7494 29.8742 13.785 23.3431 14.8273C16.0349 15.9962 10.9318 21.4246 10.3956 28.5883C9.87142 35.6254 14.1371 41.831 20.9392 43.9277C26.7352 45.7111 33.4469 43.6566 37.1643 38.8366C39.6165 35.6615 41.9782 32.4201 44.2797 29.1365C44.816 28.3714 44.9485 27.323 45.2498 26.3952C46.3162 23.0935 46.8343 19.4725 48.5514 16.5565C51.6964 11.2184 55.4981 6.25387 59.1734 1.24113C59.7035 0.524168 61.0411 0.397645 62.0051 0C61.9689 1.03026 62.3184 2.31959 61.8303 3.05464C58.6191 7.89265 55.227 12.6162 51.6603 17.7012H51.6482Z" fill="white"/>
</svg>
