<svg width="291" height="101" viewBox="0 0 291 101" fill="none" xmlns="http://www.w3.org/2000/svg">
<path fill-rule="evenodd" clip-rule="evenodd" d="M77.4287 16.8954L77.4281 16.895L77.4208 16.8896C77.1272 16.6767 76.8268 16.4588 76.5052 16.2261H76.5163C77.2836 15.1322 78.042 14.0566 78.7916 12.9935C81.2361 9.5268 83.586 6.19417 85.8388 2.80008C86.1452 2.3386 86.0915 1.63878 86.0379 0.940146C86.0132 0.618736 85.9886 0.297579 85.999 0C85.7205 0.114875 85.408 0.205066 85.0954 0.295294C84.416 0.491366 83.7361 0.687611 83.4033 1.13771C82.9043 1.81824 82.4028 2.49781 81.9011 3.17766C79.0153 7.08821 76.1224 11.0082 73.6665 15.1768C72.586 17.0118 72.0234 19.1513 71.4606 21.2915C71.2035 22.269 70.9464 23.2467 70.64 24.1956C70.5584 24.4467 70.4904 24.7074 70.4223 24.9683L70.4223 24.9685C70.2598 25.5911 70.0972 26.2142 69.7508 26.7085C67.6411 29.7184 65.4761 32.6897 63.2283 35.6003C59.8207 40.0185 53.6683 41.9018 48.3553 40.2671C42.12 38.3451 38.2098 32.6566 38.6903 26.2059C39.1818 19.6392 43.8597 14.6632 50.5589 13.5917C56.5457 12.6363 62.6705 16.2703 65.0564 22.246C65.3789 23.0596 65.6364 23.8988 65.96 24.9537C66.1351 25.5244 66.3295 26.1582 66.5641 26.8852C66.7688 26.3066 66.9484 25.8125 67.108 25.3735L67.1083 25.3726L67.1089 25.371C67.4226 24.5082 67.6589 23.8582 67.8565 23.1959C68.1012 22.3736 68.3207 21.5407 68.5402 20.7077L68.5403 20.7074L68.5404 20.7071L68.5404 20.707L68.5404 20.7069C68.9946 18.9837 69.4488 17.2602 70.1263 15.6297C70.767 14.0888 70.651 13.1333 69.5299 11.9901C63.8358 6.16902 57.109 3.36341 48.891 4.63367C38.9444 6.17454 30.9859 14.1053 29.793 23.7096C28.4344 34.5896 33.7805 44.2159 43.4621 48.3083C52.9613 52.329 63.9463 49.5675 70.281 41.4766C71.5973 39.7975 72.8535 38.0725 74.1096 36.3475C75.0722 35.0255 76.0348 33.7036 77.0244 32.4025C77.549 31.7067 78.2339 30.939 79.0071 30.6573C82.8234 29.2821 85.5296 26.6091 87.816 23.4334C89.9274 20.5037 91.9963 17.5467 94.0655 14.5893C94.7891 13.5551 95.5128 12.5207 96.2383 11.4875C96.3247 11.3669 96.4231 11.2467 96.5221 11.1258L96.5222 11.1257L96.5222 11.1257L96.5223 11.1256L96.5223 11.1256L96.5224 11.1255L96.5224 11.1254C96.7904 10.7981 97.0626 10.4657 97.111 10.1068C97.1849 9.54669 97.1218 8.9674 97.0587 8.38823L97.0587 8.38806C97.0322 8.14494 97.0058 7.90184 96.9894 7.66019C96.7451 7.73706 96.4845 7.79439 96.2242 7.85161C95.6432 7.97938 95.0645 8.10665 94.6754 8.44995C94.115 8.94508 93.7013 9.60291 93.2879 10.2603L93.2879 10.2604C93.1064 10.549 92.9251 10.8374 92.7313 11.112C91.4048 12.9884 90.0797 14.8634 88.7456 16.7511C87.4803 18.5415 86.2069 20.3433 84.9165 22.1687C83.7912 21.3547 82.9252 20.7245 81.9444 20.0107L81.9121 19.9872C82.6818 18.8957 83.4509 17.8125 84.2169 16.7338C86.5669 13.424 88.8875 10.1557 91.1076 6.81519C91.4486 6.30373 91.4205 5.54797 91.3924 4.79216C91.3796 4.44619 91.3668 4.1002 91.3893 3.77763C91.095 3.92043 90.7677 4.03907 90.4402 4.15779C89.7292 4.41557 89.0171 4.67373 88.6389 5.18043C86.2995 8.31862 84.0534 11.523 81.7718 14.778C80.9615 15.9338 80.1468 17.0961 79.3219 18.264C78.6344 17.7698 78.0494 17.3455 77.4357 16.9004L77.4318 16.8977L77.4303 16.8965L77.4287 16.8954ZM103.089 29.3247C103.017 29.0127 102.944 28.7013 102.866 28.3929H102.855C99.4392 30.5299 99.2501 33.6684 99.0586 36.847C99.016 37.5541 98.9732 38.2632 98.8948 38.9637C98.6684 40.985 99.298 42.2774 100.623 43.5476C106.445 49.1091 113.436 51.0642 121.213 49.6835C131.496 47.861 138.588 39.4165 139.582 28.3709C140.416 19.1146 134.031 9.28942 124.935 5.84317C115.231 2.16496 104.396 5.197 98.3702 13.5586C94.092 19.5009 89.8694 25.483 85.6466 31.4653L85.6462 31.4657L85.6459 31.4662L85.6455 31.4667L85.6452 31.4672L85.6449 31.4677L85.6445 31.4681C81.5437 37.2776 77.4428 43.0872 73.2909 48.8606C72.1808 50.4015 72.5343 51.263 73.5892 52.3731C76.2401 55.1677 80.3823 55.7807 84.5962 53.9803C92.1459 50.7494 97.1386 41.9736 96.161 33.8109C96.0671 33.0045 96.277 31.9717 96.7354 31.3201C99.7067 27.1172 102.684 22.9143 105.848 18.8605C109.874 13.7022 116.872 12.1558 122.776 14.9117C128.254 17.4688 131.319 23.5881 130.254 29.8344C129.243 35.7328 123.919 40.4383 117.761 40.869C111.415 41.3164 105.611 37.3676 103.584 31.2096C103.384 30.592 103.236 29.9571 103.089 29.3247ZM27.584 10.5946V2.5H0V52.5H8.96V31.3682H23.232V23.4169H8.96V10.5946H27.584ZM290.68 2.5L273.775 35.0931V52.5H263.746V35.0931L246.769 2.5H258.087L268.832 25.351L279.505 2.5H290.68ZM243.812 10.5946V2.5H212.938V52.5H222.967V31.3682H238.941V23.4169H222.967V10.5946H243.812ZM203.03 2.5V52.5H193.001V2.5H203.03ZM172.959 5.58023C168.995 3.52674 164.386 2.5 159.133 2.5H141.655V52.5H159.133C164.386 52.5 168.995 51.4733 172.959 49.4198C176.97 47.3663 180.05 44.4771 182.199 40.7521C184.396 36.9795 185.494 32.586 185.494 27.5716C185.494 22.5573 184.396 18.1638 182.199 14.3911C180.05 10.5707 176.97 7.63371 172.959 5.58023ZM170.953 39.6777C168.087 42.543 164.028 43.9756 158.775 43.9756H151.683V10.9527H158.775C164.028 10.9527 168.087 12.4331 170.953 15.394C173.818 18.3071 175.251 22.3663 175.251 27.5716C175.251 32.777 173.818 36.8123 170.953 39.6777Z" fill="white"/>
<path d="M13.57 76.015L8.28 86.204V92H5.658V86.204L0.345 76.015H3.266L6.969 83.858L10.672 76.015H13.57ZM22.9418 92.161C21.4544 92.161 20.0821 91.816 18.8248 91.126C17.5828 90.4207 16.5938 89.447 15.8578 88.205C15.1371 86.9477 14.7768 85.537 14.7768 83.973C14.7768 82.409 15.1371 81.006 15.8578 79.764C16.5938 78.522 17.5828 77.556 18.8248 76.866C20.0821 76.1607 21.4544 75.808 22.9418 75.808C24.4444 75.808 25.8168 76.1607 27.0588 76.866C28.3161 77.556 29.3051 78.522 30.0258 79.764C30.7464 81.006 31.1068 82.409 31.1068 83.973C31.1068 85.537 30.7464 86.9477 30.0258 88.205C29.3051 89.447 28.3161 90.4207 27.0588 91.126C25.8168 91.816 24.4444 92.161 22.9418 92.161ZM22.9418 89.884C23.9998 89.884 24.9428 89.6463 25.7708 89.171C26.5988 88.6803 27.2428 87.9903 27.7028 87.101C28.1781 86.1963 28.4158 85.1537 28.4158 83.973C28.4158 82.7923 28.1781 81.7573 27.7028 80.868C27.2428 79.9787 26.5988 79.2963 25.7708 78.821C24.9428 78.3457 23.9998 78.108 22.9418 78.108C21.8838 78.108 20.9408 78.3457 20.1128 78.821C19.2848 79.2963 18.6331 79.9787 18.1578 80.868C17.6978 81.7573 17.4678 82.7923 17.4678 83.973C17.4678 85.1537 17.6978 86.1963 18.1578 87.101C18.6331 87.9903 19.2848 88.6803 20.1128 89.171C20.9408 89.6463 21.8838 89.884 22.9418 89.884ZM36.2859 76.015V86.204C36.2859 87.4153 36.6002 88.3277 37.2289 88.941C37.8729 89.5543 38.7622 89.861 39.8969 89.861C41.0469 89.861 41.9362 89.5543 42.5649 88.941C43.2089 88.3277 43.5309 87.4153 43.5309 86.204V76.015H46.1529V86.158C46.1529 87.4613 45.8692 88.5653 45.3019 89.47C44.7346 90.3747 43.9756 91.0493 43.0249 91.494C42.0742 91.9387 41.0239 92.161 39.8739 92.161C38.7239 92.161 37.6736 91.9387 36.7229 91.494C35.7876 91.0493 35.0439 90.3747 34.4919 89.47C33.9399 88.5653 33.6639 87.4613 33.6639 86.158V76.015H36.2859ZM57.8698 92L54.1898 85.606H52.1888V92H49.5668V76.015H55.0868C56.3135 76.015 57.3485 76.2297 58.1918 76.659C59.0505 77.0883 59.6868 77.6633 60.1008 78.384C60.5301 79.1047 60.7448 79.9097 60.7448 80.799C60.7448 81.8417 60.4381 82.7923 59.8248 83.651C59.2268 84.4943 58.2991 85.0693 57.0418 85.376L60.9978 92H57.8698ZM52.1888 83.513H55.0868C56.0681 83.513 56.8041 83.2677 57.2948 82.777C57.8008 82.2863 58.0538 81.627 58.0538 80.799C58.0538 79.971 57.8085 79.327 57.3178 78.867C56.8271 78.3917 56.0835 78.154 55.0868 78.154H52.1888V83.513ZM79.4806 76.015V78.154H72.6956V82.869H77.9856V85.008H72.6956V92H70.0736V76.015H79.4806ZM89.2015 92.161C87.7142 92.161 86.3419 91.816 85.0845 91.126C83.8425 90.4207 82.8535 89.447 82.1175 88.205C81.3969 86.9477 81.0365 85.537 81.0365 83.973C81.0365 82.409 81.3969 81.006 82.1175 79.764C82.8535 78.522 83.8425 77.556 85.0845 76.866C86.3419 76.1607 87.7142 75.808 89.2015 75.808C90.7042 75.808 92.0765 76.1607 93.3185 76.866C94.5759 77.556 95.5649 78.522 96.2855 79.764C97.0062 81.006 97.3665 82.409 97.3665 83.973C97.3665 85.537 97.0062 86.9477 96.2855 88.205C95.5649 89.447 94.5759 90.4207 93.3185 91.126C92.0765 91.816 90.7042 92.161 89.2015 92.161ZM89.2015 89.884C90.2595 89.884 91.2025 89.6463 92.0305 89.171C92.8585 88.6803 93.5025 87.9903 93.9625 87.101C94.4379 86.1963 94.6755 85.1537 94.6755 83.973C94.6755 82.7923 94.4379 81.7573 93.9625 80.868C93.5025 79.9787 92.8585 79.2963 92.0305 78.821C91.2025 78.3457 90.2595 78.108 89.2015 78.108C88.1435 78.108 87.2005 78.3457 86.3725 78.821C85.5445 79.2963 84.8929 79.9787 84.4175 80.868C83.9575 81.7573 83.7275 82.7923 83.7275 83.973C83.7275 85.1537 83.9575 86.1963 84.4175 87.101C84.8929 87.9903 85.5445 88.6803 86.3725 89.171C87.2005 89.6463 88.1435 89.884 89.2015 89.884ZM107.238 92.161C105.75 92.161 104.378 91.816 103.121 91.126C101.879 90.4207 100.89 89.447 100.154 88.205C99.433 86.9477 99.0727 85.537 99.0727 83.973C99.0727 82.409 99.433 81.006 100.154 79.764C100.89 78.522 101.879 77.556 103.121 76.866C104.378 76.1607 105.75 75.808 107.238 75.808C108.74 75.808 110.113 76.1607 111.355 76.866C112.612 77.556 113.601 78.522 114.322 79.764C115.042 81.006 115.403 82.409 115.403 83.973C115.403 85.537 115.042 86.9477 114.322 88.205C113.601 89.447 112.612 90.4207 111.355 91.126C110.113 91.816 108.74 92.161 107.238 92.161ZM107.238 89.884C108.296 89.884 109.239 89.6463 110.067 89.171C110.895 88.6803 111.539 87.9903 111.999 87.101C112.474 86.1963 112.712 85.1537 112.712 83.973C112.712 82.7923 112.474 81.7573 111.999 80.868C111.539 79.9787 110.895 79.2963 110.067 78.821C109.239 78.3457 108.296 78.108 107.238 78.108C106.18 78.108 105.237 78.3457 104.409 78.821C103.581 79.2963 102.929 79.9787 102.454 80.868C101.994 81.7573 101.764 82.7923 101.764 83.973C101.764 85.1537 101.994 86.1963 102.454 87.101C102.929 87.9903 103.581 88.6803 104.409 89.171C105.237 89.6463 106.18 89.884 107.238 89.884ZM123.204 76.015C124.906 76.015 126.393 76.3447 127.666 77.004C128.954 77.648 129.943 78.5833 130.633 79.81C131.338 81.0213 131.691 82.4397 131.691 84.065C131.691 85.6903 131.338 87.101 130.633 88.297C129.943 89.493 128.954 90.413 127.666 91.057C126.393 91.6857 124.906 92 123.204 92H117.983V76.015H123.204ZM123.204 89.861C125.074 89.861 126.508 89.355 127.505 88.343C128.501 87.331 129 85.905 129 84.065C129 82.2097 128.501 80.7607 127.505 79.718C126.508 78.6753 125.074 78.154 123.204 78.154H120.605V89.861H123.204ZM139.39 83.973C139.39 82.409 139.75 81.006 140.471 79.764C141.207 78.522 142.196 77.556 143.438 76.866C144.695 76.1607 146.068 75.808 147.555 75.808C149.257 75.808 150.767 76.2297 152.086 77.073C153.42 77.901 154.386 79.0817 154.984 80.615H151.833C151.419 79.7717 150.844 79.143 150.108 78.729C149.372 78.315 148.521 78.108 147.555 78.108C146.497 78.108 145.554 78.3457 144.726 78.821C143.898 79.2963 143.246 79.9787 142.771 80.868C142.311 81.7573 142.081 82.7923 142.081 83.973C142.081 85.1537 142.311 86.1887 142.771 87.078C143.246 87.9673 143.898 88.6573 144.726 89.148C145.554 89.6233 146.497 89.861 147.555 89.861C148.521 89.861 149.372 89.654 150.108 89.24C150.844 88.826 151.419 88.1973 151.833 87.354H154.984C154.386 88.8873 153.42 90.068 152.086 90.896C150.767 91.724 149.257 92.138 147.555 92.138C146.052 92.138 144.68 91.793 143.438 91.103C142.196 90.3977 141.207 89.424 140.471 88.182C139.75 86.94 139.39 85.537 139.39 83.973ZM165.344 92.161C163.857 92.161 162.484 91.816 161.227 91.126C159.985 90.4207 158.996 89.447 158.26 88.205C157.539 86.9477 157.179 85.537 157.179 83.973C157.179 82.409 157.539 81.006 158.26 79.764C158.996 78.522 159.985 77.556 161.227 76.866C162.484 76.1607 163.857 75.808 165.344 75.808C166.847 75.808 168.219 76.1607 169.461 76.866C170.718 77.556 171.707 78.522 172.428 79.764C173.149 81.006 173.509 82.409 173.509 83.973C173.509 85.537 173.149 86.9477 172.428 88.205C171.707 89.447 170.718 90.4207 169.461 91.126C168.219 91.816 166.847 92.161 165.344 92.161ZM165.344 89.884C166.402 89.884 167.345 89.6463 168.173 89.171C169.001 88.6803 169.645 87.9903 170.105 87.101C170.58 86.1963 170.818 85.1537 170.818 83.973C170.818 82.7923 170.58 81.7573 170.105 80.868C169.645 79.9787 169.001 79.2963 168.173 78.821C167.345 78.3457 166.402 78.108 165.344 78.108C164.286 78.108 163.343 78.3457 162.515 78.821C161.687 79.2963 161.035 79.9787 160.56 80.868C160.1 81.7573 159.87 82.7923 159.87 83.973C159.87 85.1537 160.1 86.1963 160.56 87.101C161.035 87.9903 161.687 88.6803 162.515 89.171C163.343 89.6463 164.286 89.884 165.344 89.884ZM192.925 76.015V92H190.303V81.052L185.427 92H183.61L178.711 81.052V92H176.089V76.015H178.918L184.53 88.55L190.119 76.015H192.925ZM207.549 80.776C207.549 81.5887 207.358 82.3553 206.974 83.076C206.591 83.7967 205.978 84.387 205.134 84.847C204.291 85.2917 203.21 85.514 201.891 85.514H198.993V92H196.371V76.015H201.891C203.118 76.015 204.153 76.2297 204.996 76.659C205.855 77.073 206.491 77.6403 206.905 78.361C207.335 79.0817 207.549 79.8867 207.549 80.776ZM201.891 83.375C202.888 83.375 203.632 83.1527 204.122 82.708C204.613 82.248 204.858 81.604 204.858 80.776C204.858 79.028 203.869 78.154 201.891 78.154H198.993V83.375H201.891ZM219.687 88.734H212.994L211.844 92H209.107L214.834 75.992H217.87L223.597 92H220.837L219.687 88.734ZM218.951 86.595L216.352 79.166L213.73 86.595H218.951ZM239.22 92H236.598L228.709 80.063V92H226.087V75.992H228.709L236.598 87.906V75.992H239.22V92ZM245.285 76.015V92H242.663V76.015H245.285ZM256.019 92.161C254.532 92.161 253.159 91.816 251.902 91.126C250.66 90.4207 249.671 89.447 248.935 88.205C248.214 86.9477 247.854 85.537 247.854 83.973C247.854 82.409 248.214 81.006 248.935 79.764C249.671 78.522 250.66 77.556 251.902 76.866C253.159 76.1607 254.532 75.808 256.019 75.808C257.522 75.808 258.894 76.1607 260.136 76.866C261.393 77.556 262.382 78.522 263.103 79.764C263.824 81.006 264.184 82.409 264.184 83.973C264.184 85.537 263.824 86.9477 263.103 88.205C262.382 89.447 261.393 90.4207 260.136 91.126C258.894 91.816 257.522 92.161 256.019 92.161ZM256.019 89.884C257.077 89.884 258.02 89.6463 258.848 89.171C259.676 88.6803 260.32 87.9903 260.78 87.101C261.255 86.1963 261.493 85.1537 261.493 83.973C261.493 82.7923 261.255 81.7573 260.78 80.868C260.32 79.9787 259.676 79.2963 258.848 78.821C258.02 78.3457 257.077 78.108 256.019 78.108C254.961 78.108 254.018 78.3457 253.19 78.821C252.362 79.2963 251.71 79.9787 251.235 80.868C250.775 81.7573 250.545 82.7923 250.545 83.973C250.545 85.1537 250.775 86.1963 251.235 87.101C251.71 87.9903 252.362 88.6803 253.19 89.171C254.018 89.6463 254.961 89.884 256.019 89.884ZM279.897 92H277.275L269.386 80.063V92H266.764V75.992H269.386L277.275 87.906V75.992H279.897V92Z" fill="white"/>
</svg>
