<svg width="186" height="34" viewBox="0 0 186 34" fill="none" xmlns="http://www.w3.org/2000/svg">
<path d="M17 1.5V6.51862H5.52204V14.4685H14.3179V19.3983H5.52204V32.5H0V1.5H17Z" fill="white"/>
<path d="M65.9381 17.552C66.087 18.129 66.2012 18.723 66.3882 19.2932C67.6588 23.0999 71.2974 25.541 75.2754 25.2645C79.1356 24.9982 82.4731 22.0894 83.1066 18.4431C83.7748 14.5817 81.8534 10.7989 78.419 9.21813C74.718 7.51448 70.3315 8.47044 67.8076 11.6592C65.8238 14.1652 63.9578 16.7633 62.0952 19.3615C61.8078 19.7644 61.6762 20.4028 61.7351 20.9013C62.3479 25.9473 59.2181 31.3724 54.4855 33.3696C51.8439 34.4826 49.2473 34.1037 47.5855 32.3761C46.9242 31.6899 46.7026 31.1573 47.3985 30.2047C52.6817 22.96 57.8333 15.623 63.1199 8.38167C66.8971 3.21269 73.6897 1.33834 79.7726 3.61214C85.4747 5.74255 89.4769 11.8163 88.9541 17.5383C88.331 24.3666 83.8856 29.5868 77.4392 30.7134C72.5646 31.567 68.1815 30.3584 64.5325 26.9204C63.7016 26.1351 63.3069 25.3362 63.4488 24.0866C63.7189 21.707 63.3138 19.1669 65.9312 17.552H65.9381Z" fill="white"/>
<path d="M49.4135 10.0307C50.0401 10.4779 50.5387 10.8364 51.1791 11.2905C53.1525 8.53531 55.0325 5.83132 57.0197 3.20245C57.3659 2.74495 58.1587 2.61522 58.7438 2.33526C58.6988 2.97029 58.8789 3.75212 58.5673 4.21303C56.722 6.95115 54.7659 9.61075 52.8029 12.3557C53.4261 12.803 53.9731 13.1956 54.6863 13.7043C56.3481 11.3861 57.9649 9.12936 59.5851 6.86921C59.9833 6.31271 60.2983 5.66403 60.8038 5.22361C61.1569 4.91634 61.7593 4.88902 62.2544 4.73539C62.289 5.24068 62.3964 5.75621 62.3306 6.24784C62.289 6.5517 61.9844 6.82483 61.7836 7.10137C60.0283 9.56637 58.2903 12.0416 56.5039 14.4861C55.0705 16.4492 53.3741 18.1017 50.9818 18.9518C50.4971 19.1259 50.0678 19.6005 49.7389 20.0307C48.3091 21.8845 46.9692 23.8067 45.5117 25.6401C41.5407 30.6417 34.6545 32.3488 28.6997 29.8633C22.6307 27.3335 19.2793 21.3826 20.131 14.6568C20.8788 8.71967 25.8677 3.81699 32.103 2.86445C37.2546 2.0792 41.4714 3.81357 45.0408 7.41206C45.7436 8.11878 45.8164 8.70943 45.4148 9.66197C44.7846 11.1574 44.4627 12.7791 43.9918 14.3393C43.8049 14.9573 43.5625 15.5582 43.1817 16.6199C42.7628 15.3397 42.5481 14.5271 42.2365 13.7521C40.7409 10.058 36.9014 7.81151 33.1485 8.40215C28.949 9.06449 26.0166 12.1406 25.7085 16.2C25.4073 20.1877 27.8584 23.7043 31.7671 24.8924C35.0977 25.9029 38.9545 24.7387 41.0906 22.0074C42.4997 20.2082 43.8568 18.3714 45.1793 16.5107C45.4875 16.0771 45.5636 15.483 45.7367 14.9573C46.3495 13.0863 46.6473 11.0344 47.634 9.38201C49.4412 6.3571 51.6258 3.54386 53.7376 0.703309C54.0423 0.297029 54.8109 0.225332 55.3648 0C55.3441 0.583815 55.5449 1.31444 55.2644 1.73096C53.4191 4.4725 51.47 7.14917 49.4204 10.0307H49.4135Z" fill="white"/>
<path d="M185.795 1.43304L175.268 21.7281V32.567H169.023V21.7281L158.452 1.43304H165.5L172.19 15.6619L178.836 1.43304H185.795Z" fill="white"/>
<path d="M156.611 1.43304V6.47335H143.631V14.4576H153.578V19.4086H143.631V32.567H137.387V1.43304H156.611Z" fill="white"/>
<path d="M131.217 1.43304V32.567H124.973V1.43304H131.217Z" fill="white"/>
<path d="M103.883 1.43304C107.154 1.43304 110.024 2.07238 112.492 3.35104C114.99 4.6297 116.908 6.45848 118.246 8.83739C119.614 11.1866 120.298 13.9223 120.298 17.0446C120.298 20.1669 119.614 22.9027 118.246 25.2518C116.908 27.5713 114.99 29.3703 112.492 30.649C110.024 31.9276 107.154 32.567 103.883 32.567H93V1.43304H103.883ZM103.66 27.259C106.931 27.259 109.459 26.3669 111.243 24.5828C113.027 22.7986 113.92 20.2859 113.92 17.0446C113.92 13.8034 113.027 11.2758 111.243 9.46185C109.459 7.6182 106.931 6.69637 103.66 6.69637H99.2446V27.259H103.66Z" fill="white"/>
</svg>
