<svg width="273" height="273" viewBox="0 0 273 273" fill="none" xmlns="http://www.w3.org/2000/svg">
<path d="M136.032 272.064C211.16 272.064 272.064 211.16 272.064 136.032C272.064 60.9036 211.16 0 136.032 0C60.9036 0 0 60.9036 0 136.032C0 211.16 60.9036 272.064 136.032 272.064Z" fill="#B1B3B6"/>
<mask id="mask0_198_90874" style="mask-type:alpha" maskUnits="userSpaceOnUse" x="-1" y="-1" width="274" height="274">
<path d="M136.032 272.064C211.16 272.064 272.064 211.16 272.064 136.032C272.064 60.9036 211.16 0 136.032 0C60.9036 0 0 60.9036 0 136.032C0 211.16 60.9036 272.064 136.032 272.064Z" fill="#B1B3B6" stroke="#FDFDFD" stroke-width="0.66672"/>
</mask>
<g mask="url(#mask0_198_90874)">
<path fill-rule="evenodd" clip-rule="evenodd" d="M135.993 174.946C132.337 174.946 128.681 173.822 124.041 171.431C119.12 169.322 115.464 165.525 110.261 159.901C102.949 151.464 104.074 141.903 105.199 137.544C101.543 134.731 99.8559 131.779 100.137 128.685C100.278 125.451 102.528 123.342 104.215 122.076L103.934 106.75C103.793 104.922 105.199 103.375 107.027 103.375C108.855 103.375 110.402 104.781 110.402 106.609L110.964 123.904C110.964 125.17 110.261 126.435 108.996 126.998C108.152 127.42 106.746 128.544 106.746 129.248C106.746 129.81 107.59 131.357 110.824 133.466C112.089 134.31 112.652 135.997 112.089 137.403C111.949 137.825 108.293 147.386 115.183 155.542C120.526 161.307 123.338 163.979 126.713 165.525H126.853C134.446 169.322 137.54 169.322 144.992 165.525H145.133C148.648 163.979 151.46 161.307 156.663 155.542C163.694 147.386 160.038 137.825 159.897 137.403C159.335 135.997 159.757 134.31 161.163 133.466C164.397 131.357 165.24 129.81 165.24 129.248C165.1 128.404 163.694 127.279 162.991 126.998C161.725 126.435 161.022 125.31 161.022 124.045V106.609C161.022 104.781 162.428 103.375 164.256 103.375C166.084 103.375 167.631 104.781 167.631 106.609V122.076C169.318 123.342 171.568 125.451 171.709 128.685C171.99 131.779 170.302 134.731 166.647 137.544C167.771 141.903 168.896 151.464 161.585 159.901C156.523 165.525 152.726 169.322 147.805 171.431C143.305 173.822 139.649 174.946 135.993 174.946Z" fill="#FDFDFD"/>
<path fill-rule="evenodd" clip-rule="evenodd" d="M167.632 109.983H104.778C103.231 109.983 101.825 108.718 101.544 107.171L99.1536 90.1571C86.7798 88.751 79.1867 78.9082 78.6243 63.1597C78.3431 55.7072 81.0147 48.6766 86.2173 43.1928C91.2794 37.8495 98.1693 34.7561 105.622 34.4748H105.762C108.153 34.4748 110.262 34.7561 112.231 35.1779C115.465 32.3657 119.683 30.2565 124.042 29.1316C129.526 22.101 137.259 18.1639 145.415 18.0232C155.82 17.6014 165.241 22.9447 170.444 32.0844C172.553 33.4906 174.24 35.1779 175.928 36.7246C187.177 40.943 193.364 49.6609 193.785 62.0348C194.067 70.3309 191.254 78.3457 186.192 83.5484C182.677 87.2043 178.318 89.4541 173.256 90.0165L170.866 107.171C170.584 108.718 169.178 109.983 167.632 109.983Z" fill="#FDFDFD"/>
<path fill-rule="evenodd" clip-rule="evenodd" d="M205.034 258.048L136.134 292.048L67.3747 258.048C65.5467 258.048 64 256.642 64 254.814V221.067C64 203.631 83.2638 188.586 110.824 184.508C111.667 184.367 112.37 184.508 113.074 184.93L136.134 198.429L159.335 184.93C160.038 184.508 160.741 184.367 161.585 184.508C189.145 188.586 208.408 203.631 208.408 221.067V254.814C208.408 256.642 206.862 258.048 205.034 258.048ZM138.102 244.409H134.306C132.478 244.409 131.072 243.002 131.072 241.175C131.072 239.347 132.478 237.94 134.306 237.94H138.102C139.93 237.94 141.337 239.347 141.337 241.175C141.337 243.002 139.93 244.409 138.102 244.409ZM138.102 232.316H134.306C132.478 232.316 131.072 230.769 131.072 228.941C131.072 227.113 132.478 225.707 134.306 225.707H138.102C139.93 225.707 141.337 227.113 141.337 228.941C141.337 230.769 139.93 232.316 138.102 232.316ZM138.102 219.661H134.306C132.478 219.661 131.072 218.114 131.072 216.286C131.072 214.458 132.478 213.052 134.306 213.052H138.102C139.93 213.052 141.337 214.458 141.337 216.286C141.337 218.114 139.93 219.661 138.102 219.661ZM182.536 219.661H160.038C158.21 219.661 156.804 218.114 156.804 216.286C156.804 214.458 158.21 213.052 160.038 213.052H182.536C184.364 213.052 185.91 214.458 185.91 216.286C185.91 218.114 184.364 219.661 182.536 219.661Z" fill="#FDFDFD"/>
<path fill-rule="evenodd" clip-rule="evenodd" d="M111.386 190.976C110.261 190.976 109.136 190.413 108.574 189.429C107.59 187.882 108.152 185.914 109.699 184.929C113.917 182.398 116.026 178.461 117.011 174.946C118.276 175.93 119.682 176.774 121.229 177.477C125.869 179.586 130.65 181.555 135.993 181.555C141.196 181.555 145.977 179.586 150.617 177.336C152.445 176.633 153.992 175.649 155.398 174.524C156.382 178.321 158.351 182.258 162.709 184.929C164.256 185.914 164.819 187.882 163.834 189.429C163.272 190.413 162.147 190.976 161.022 190.976C160.46 190.976 158.491 202.084 157.929 201.662H111.667C111.105 202.084 111.949 190.976 111.386 190.976Z" fill="#FDFDFD"/>
</g>
<path d="M139.644 99.7111C139.698 99.9317 139.74 100.159 139.807 100.377C140.268 101.832 141.586 102.766 143.027 102.66C144.426 102.558 145.635 101.446 145.865 100.052C146.107 98.5754 145.411 97.129 144.166 96.5246C142.825 95.8732 141.236 96.2387 140.322 97.4579C139.603 98.4161 138.927 99.4095 138.252 100.403C138.148 100.557 138.1 100.801 138.121 100.992C138.343 102.921 137.209 104.995 135.495 105.759C134.538 106.185 133.597 106.04 132.995 105.379C132.755 105.117 132.675 104.913 132.927 104.549C134.841 101.779 136.708 98.9735 138.623 96.2048C139.992 94.2284 142.453 93.5117 144.657 94.3811C146.723 95.1957 148.173 97.518 147.983 99.7058C147.758 102.317 146.147 104.313 143.811 104.743C142.045 105.07 140.457 104.608 139.135 103.293C138.834 102.993 138.691 102.687 138.742 102.21C138.84 101.3 138.693 100.329 139.642 99.7111H139.644Z" fill="#B1B3B6"/>
<path d="M133.657 96.8353C133.884 97.0063 134.065 97.1433 134.297 97.317C135.012 96.2635 135.693 95.2296 136.413 94.2245C136.538 94.0495 136.826 93.9999 137.038 93.8929C137.021 94.1357 137.087 94.4346 136.974 94.6109C136.305 95.6578 135.596 96.6747 134.885 97.7242C135.111 97.8952 135.309 98.0454 135.567 98.2399C136.17 97.3535 136.755 96.4906 137.342 95.6265C137.487 95.4137 137.601 95.1657 137.784 94.9973C137.912 94.8798 138.13 94.8693 138.31 94.8106C138.322 95.0038 138.361 95.2009 138.337 95.3889C138.322 95.5051 138.212 95.6095 138.139 95.7152C137.503 96.6577 136.873 97.6041 136.226 98.5388C135.707 99.2894 135.092 99.9212 134.225 100.246C134.05 100.313 133.894 100.494 133.775 100.659C133.257 101.368 132.771 102.103 132.243 102.804C130.805 104.716 128.31 105.369 126.152 104.418C123.953 103.451 122.739 101.176 123.047 98.6041C123.318 96.334 125.126 94.4594 127.385 94.0952C129.252 93.795 130.779 94.4581 132.073 95.834C132.327 96.1042 132.354 96.3301 132.208 96.6943C131.98 97.266 131.863 97.8861 131.693 98.4827C131.625 98.719 131.537 98.9487 131.399 99.3547C131.247 98.8652 131.17 98.5545 131.057 98.2581C130.515 96.8457 129.124 95.9868 127.764 96.2126C126.242 96.4658 125.18 97.642 125.068 99.1941C124.959 100.719 125.847 102.063 127.263 102.518C128.47 102.904 129.868 102.459 130.642 101.415C131.152 100.727 131.644 100.024 132.123 99.3129C132.235 99.1471 132.262 98.92 132.325 98.719C132.547 98.0036 132.655 97.2191 133.012 96.5872C133.667 95.4307 134.459 94.355 135.224 93.2689C135.334 93.1136 135.613 93.0862 135.813 93C135.806 93.2232 135.879 93.5026 135.777 93.6618C135.108 94.7101 134.402 95.7335 133.66 96.8353H133.657Z" fill="#B1B3B6"/>
</svg>
