<svg width="273" height="273" viewBox="0 0 273 273" fill="none" xmlns="http://www.w3.org/2000/svg">
<path d="M136.032 272.064C211.16 272.064 272.064 211.16 272.064 136.032C272.064 60.9036 211.16 0 136.032 0C60.9036 0 0 60.9036 0 136.032C0 211.16 60.9036 272.064 136.032 272.064Z" fill="#B1B3B6"/>
<mask id="mask0_198_90892" style="mask-type:alpha" maskUnits="userSpaceOnUse" x="-1" y="-1" width="274" height="274">
<path d="M136.032 272.064C211.16 272.064 272.064 211.16 272.064 136.032C272.064 60.9036 211.16 0 136.032 0C60.9036 0 0 60.9036 0 136.032C0 211.16 60.9036 272.064 136.032 272.064Z" fill="#B1B3B6" stroke="#FDFDFD" stroke-width="0.66672"/>
</mask>
<g mask="url(#mask0_198_90892)">
<path fill-rule="evenodd" clip-rule="evenodd" d="M135.993 174.946C132.337 174.946 128.681 173.822 124.041 171.431C119.12 169.322 115.464 165.525 110.261 159.901C102.949 151.464 104.074 141.903 105.199 137.544C101.543 134.731 99.8559 131.779 100.137 128.685C100.278 125.451 102.528 123.342 104.215 122.076L103.934 106.75C103.793 104.922 105.199 103.375 107.027 103.375C108.855 103.375 110.402 104.781 110.402 106.609L110.964 123.904C110.964 125.17 110.261 126.435 108.996 126.998C108.152 127.42 106.746 128.544 106.746 129.248C106.746 129.81 107.59 131.357 110.824 133.466C112.089 134.31 112.652 135.997 112.089 137.403C111.949 137.825 108.293 147.386 115.183 155.542C120.526 161.307 123.338 163.979 126.713 165.525H126.853C134.446 169.322 137.54 169.322 144.992 165.525H145.133C148.648 163.979 151.46 161.307 156.663 155.542C163.694 147.386 160.038 137.825 159.897 137.403C159.335 135.997 159.757 134.31 161.163 133.466C164.397 131.357 165.24 129.81 165.24 129.248C165.1 128.404 163.694 127.279 162.991 126.998C161.725 126.435 161.022 125.31 161.022 124.045V106.609C161.022 104.781 162.428 103.375 164.256 103.375C166.084 103.375 167.631 104.781 167.631 106.609V122.076C169.318 123.342 171.568 125.451 171.709 128.685C171.99 131.779 170.302 134.731 166.647 137.544C167.771 141.903 168.896 151.464 161.585 159.901C156.523 165.525 152.726 169.322 147.805 171.431C143.305 173.822 139.649 174.946 135.993 174.946Z" fill="#FDFDFD"/>
<path fill-rule="evenodd" clip-rule="evenodd" d="M167.632 109.983H104.778C103.231 109.983 101.825 108.718 101.544 107.171L99.1536 90.1571C86.7798 88.751 79.1867 78.9082 78.6243 63.1597C78.3431 55.7072 81.0147 48.6766 86.2173 43.1928C91.2794 37.8495 98.1693 34.7561 105.622 34.4748H105.762C108.153 34.4748 110.262 34.7561 112.231 35.1779C115.465 32.3657 119.683 30.2565 124.042 29.1316C129.526 22.101 137.259 18.1639 145.415 18.0232C155.82 17.6014 165.241 22.9447 170.444 32.0844C172.553 33.4906 174.24 35.1779 175.928 36.7246C187.177 40.943 193.364 49.6609 193.785 62.0348C194.067 70.3309 191.254 78.3457 186.192 83.5484C182.677 87.2043 178.318 89.4541 173.256 90.0165L170.866 107.171C170.584 108.718 169.178 109.983 167.632 109.983Z" fill="#FDFDFD"/>
<path fill-rule="evenodd" clip-rule="evenodd" d="M205.034 258.048L136.134 292.048L67.3747 258.048C65.5467 258.048 64 256.642 64 254.814V221.067C64 203.631 83.2638 188.586 110.824 184.508C111.667 184.367 112.37 184.508 113.074 184.93L136.134 198.429L159.335 184.93C160.038 184.508 160.741 184.367 161.585 184.508C189.145 188.586 208.408 203.631 208.408 221.067V254.814C208.408 256.642 206.862 258.048 205.034 258.048ZM138.102 244.409H134.306C132.478 244.409 131.072 243.002 131.072 241.175C131.072 239.347 132.478 237.94 134.306 237.94H138.102C139.93 237.94 141.337 239.347 141.337 241.175C141.337 243.002 139.93 244.409 138.102 244.409ZM138.102 232.316H134.306C132.478 232.316 131.072 230.769 131.072 228.941C131.072 227.113 132.478 225.707 134.306 225.707H138.102C139.93 225.707 141.337 227.113 141.337 228.941C141.337 230.769 139.93 232.316 138.102 232.316ZM138.102 219.661H134.306C132.478 219.661 131.072 218.114 131.072 216.286C131.072 214.458 132.478 213.052 134.306 213.052H138.102C139.93 213.052 141.337 214.458 141.337 216.286C141.337 218.114 139.93 219.661 138.102 219.661ZM182.536 219.661H160.038C158.21 219.661 156.804 218.114 156.804 216.286C156.804 214.458 158.21 213.052 160.038 213.052H182.536C184.364 213.052 185.91 214.458 185.91 216.286C185.91 218.114 184.364 219.661 182.536 219.661Z" fill="#FDFDFD"/>
<path fill-rule="evenodd" clip-rule="evenodd" d="M111.386 190.976C110.261 190.976 109.136 190.413 108.574 189.429C107.59 187.882 108.152 185.914 109.699 184.929C113.917 182.398 116.026 178.461 117.011 174.946C118.276 175.93 119.682 176.774 121.229 177.477C125.869 179.586 130.65 181.555 135.993 181.555C141.196 181.555 145.977 179.586 150.617 177.336C152.445 176.633 153.992 175.649 155.398 174.524C156.382 178.321 158.351 182.258 162.709 184.929C164.256 185.914 164.819 187.882 163.834 189.429C163.272 190.413 162.147 190.976 161.022 190.976C160.46 190.976 158.491 202.084 157.929 201.662H111.667C111.105 202.084 111.949 190.976 111.386 190.976Z" fill="#FDFDFD"/>
</g>
<path d="M124.545 96.7647C124.494 96.7296 124.442 96.6936 124.387 96.6552H124.389C124.52 96.4762 124.65 96.3002 124.778 96.1262C125.197 95.5589 125.6 95.0136 125.986 94.4582C126.039 94.3827 126.029 94.2682 126.02 94.1538C126.016 94.1012 126.012 94.0487 126.013 94C125.966 94.0188 125.912 94.0336 125.859 94.0483C125.742 94.0804 125.626 94.1125 125.569 94.1862C125.483 94.2975 125.397 94.4087 125.311 94.52C124.817 95.1599 124.321 95.8013 123.9 96.4835C123.715 96.7837 123.619 97.1338 123.522 97.4841C123.478 97.644 123.434 97.804 123.382 97.9593C123.368 98.0004 123.356 98.043 123.344 98.0857C123.316 98.1876 123.289 98.2896 123.229 98.3705C122.868 98.863 122.497 99.3492 122.112 99.8255C121.528 100.548 120.473 100.857 119.563 100.589C118.495 100.275 117.825 99.3438 117.907 98.2882C117.991 97.2137 118.793 96.3994 119.941 96.2241C120.967 96.0678 122.016 96.6624 122.425 97.6403C122.48 97.7734 122.524 97.9107 122.58 98.0833C122.61 98.1767 122.643 98.2804 122.683 98.3994C122.718 98.3045 122.749 98.2236 122.777 98.1516C122.83 98.0106 122.871 97.904 122.905 97.7957C122.947 97.6611 122.984 97.5248 123.022 97.3885C123.1 97.1065 123.178 96.8244 123.294 96.5576C123.403 96.3054 123.384 96.1491 123.191 95.962C122.216 95.0095 121.063 94.5504 119.655 94.7582C117.95 95.0104 116.587 96.3081 116.382 97.8797C116.15 99.6601 117.066 101.235 118.725 101.905C120.352 102.563 122.235 102.111 123.32 100.787C123.546 100.512 123.761 100.23 123.976 99.9478C124.141 99.7315 124.306 99.5151 124.476 99.3022C124.566 99.1884 124.683 99.0627 124.815 99.0167C125.469 98.7916 125.933 98.3542 126.325 97.8346C126.687 97.3552 127.041 96.8713 127.396 96.3875L127.397 96.3862L127.397 96.3855C127.521 96.2169 127.644 96.0482 127.768 95.8798C127.783 95.86 127.8 95.8403 127.817 95.8205C127.863 95.767 127.909 95.7126 127.918 95.6538C127.93 95.5622 127.919 95.4674 127.909 95.3726C127.904 95.3328 127.9 95.293 127.897 95.2535C127.855 95.2661 127.81 95.2754 127.766 95.2848C127.666 95.3057 127.567 95.3265 127.5 95.3827C127.404 95.4637 127.333 95.5714 127.262 95.679C127.231 95.7262 127.2 95.7734 127.167 95.8183C126.941 96.124 126.715 96.4294 126.487 96.7369L126.482 96.7437C126.266 97.0358 126.048 97.3298 125.828 97.6276C125.635 97.4944 125.487 97.3913 125.319 97.2745L125.313 97.2706C125.445 97.0925 125.576 96.9158 125.707 96.7398L125.708 96.7384C126.111 96.1968 126.508 95.6619 126.889 95.1152C126.947 95.0315 126.942 94.9079 126.938 94.7842C126.935 94.7276 126.933 94.6709 126.937 94.6182C126.887 94.6415 126.831 94.6609 126.774 94.6804C126.653 94.7225 126.531 94.7648 126.466 94.8477C126.065 95.3612 125.68 95.8856 125.289 96.4182C125.15 96.6074 125.011 96.7975 124.869 96.9887C124.752 96.9078 124.651 96.8384 124.546 96.7655L124.545 96.7647Z" fill="#B1B3B6"/>
<path d="M128.942 98.7986C128.93 98.7475 128.917 98.6966 128.904 98.6461H128.902C128.317 98.9958 128.284 99.5094 128.251 100.03C128.244 100.145 128.237 100.261 128.223 100.376C128.184 100.707 128.292 100.918 128.519 101.126C129.517 102.036 130.715 102.356 132.047 102.13C133.81 101.832 135.025 100.45 135.195 98.6425C135.338 97.1278 134.244 95.5201 132.685 94.9562C131.023 94.3543 129.166 94.8504 128.133 96.2187C127.4 97.1912 126.676 98.1703 125.953 99.1494C125.25 100.1 124.547 101.051 123.836 101.995C123.646 102.248 123.706 102.388 123.887 102.57C124.341 103.027 125.051 103.128 125.773 102.833C127.067 102.304 127.922 100.868 127.755 99.5327C127.739 99.4007 127.775 99.2317 127.853 99.1251C128.362 98.4374 128.872 97.7496 129.415 97.0863C130.105 96.2422 131.304 95.9891 132.315 96.4401C133.254 96.8585 133.779 97.8599 133.597 98.882C133.424 99.8472 132.511 100.617 131.456 100.688C130.369 100.761 129.374 100.115 129.027 99.107C128.992 99.006 128.967 98.9021 128.942 98.7986Z" fill="#B1B3B6"/>
<path d="M114.727 95.7337V94.4091H110V102.591H111.535V99.133H113.981V97.8319H111.535V95.7337H114.727Z" fill="#B1B3B6"/>
<path d="M162.364 94.4091L159.467 99.7425V102.591H157.748V99.7425L154.839 94.4091H156.779L158.62 98.1483L160.449 94.4091H162.364Z" fill="#B1B3B6"/>
<path d="M154.333 95.7337V94.4091H149.042V102.591H150.761V99.133H153.498V97.8319H150.761V95.7337H154.333Z" fill="#B1B3B6"/>
<path d="M147.344 94.4091V102.591H145.626V94.4091H147.344Z" fill="#B1B3B6"/>
<path fill-rule="evenodd" clip-rule="evenodd" d="M142.192 94.9131C141.512 94.5771 140.723 94.4091 139.823 94.4091H136.828V102.591H139.823C140.723 102.591 141.512 102.423 142.192 102.087C142.879 101.751 143.407 101.278 143.775 100.669C144.151 100.051 144.34 99.3322 144.34 98.5117C144.34 97.6912 144.151 96.9723 143.775 96.3549C143.407 95.7297 142.879 95.2492 142.192 94.9131ZM141.848 100.493C141.357 100.962 140.661 101.196 139.761 101.196H138.546V95.7923H139.761C140.661 95.7923 141.357 96.0345 141.848 96.519C142.339 96.9957 142.584 97.6599 142.584 98.5117C142.584 99.3635 142.339 100.024 141.848 100.493Z" fill="#B1B3B6"/>
</svg>
