<svg width="143" height="30" viewBox="0 0 143 30" fill="none" xmlns="http://www.w3.org/2000/svg">
<path d="M21.5947 4.7C20.4554 3.39937 19.8275 1.72905 19.828 0H14.678V20.6667C14.6383 21.785 14.1661 22.8444 13.3609 23.6216C12.5558 24.3988 11.4804 24.8332 10.3613 24.8333C7.99466 24.8333 6.028 22.9 6.028 20.5C6.028 17.6333 8.79466 15.4833 11.6447 16.3667V11.1C5.89466 10.3333 0.861328 14.8 0.861328 20.5C0.861328 26.05 5.46133 30 10.3447 30C15.578 30 19.828 25.75 19.828 20.5V10.0167C21.9163 11.5164 24.4236 12.3211 26.9947 12.3167V7.16667C26.9947 7.16667 23.8613 7.31667 21.5947 4.7Z" fill="white"/>
<path d="M67.7113 18.3679C66.66 19.4719 65.635 20.548 64.6131 21.6256C62.2039 24.1633 59.7792 26.6871 57.3979 29.2496C56.8993 29.7869 56.4023 30.0702 55.6668 29.9851C55.1899 29.9309 54.7007 29.9742 53.9946 29.9742C58.2293 25.4701 62.3246 21.1162 66.4788 16.6988C62.3881 11.1775 58.3098 5.66852 54.1572 0.0620149C54.4669 0.0387899 54.6805 0.00937165 54.8927 0.00782331C57.545 0.00782331 60.1988 0.0279516 62.8511 8.16602e-05C63.3605 -0.00456333 63.6392 0.188978 63.9194 0.574512C66.3224 3.8833 68.7425 7.17814 71.1594 10.4776C71.3096 10.682 71.4675 10.8818 71.6781 11.1574C72.3934 10.4049 73.0778 9.68954 73.7575 8.96801C76.351 6.21508 78.9522 3.46834 81.524 0.695282C81.9281 0.260201 82.3291 0.0511766 82.9205 0.0945298C83.5523 0.14098 84.1917 0.105368 85.0387 0.105368C80.9263 4.43915 76.9517 8.62738 72.9168 12.8806C76.9734 18.5135 81.0238 24.137 85.1378 29.8488C84.8714 29.8798 84.6856 29.92 84.5014 29.9216C82.0287 29.9386 79.556 29.968 77.0833 29.9386C76.7443 29.934 76.2937 29.7079 76.0878 29.4369C73.4479 25.9842 70.8451 22.5035 68.23 19.0306C68.0767 18.8262 67.9141 18.6281 67.7097 18.3679H67.7113ZM81.6494 28.0125C81.5209 27.7338 81.5069 27.6827 81.4775 27.6424C75.3585 19.348 69.2395 11.0552 63.1128 2.76695C62.9858 2.59508 62.7752 2.38916 62.5894 2.37522C61.1649 2.26839 59.7374 2.20645 58.172 2.1213C58.4275 2.4898 58.5901 2.74063 58.7681 2.97907C60.4852 5.28918 62.2054 7.59774 63.9225 9.90785C68.264 15.7435 72.6025 21.5823 76.9533 27.4102C77.136 27.6548 77.4317 27.9707 77.6872 27.9831C78.9599 28.0419 80.2373 28.0094 81.6478 28.0094L81.6494 28.0125Z" fill="white"/>
<path d="M128.68 0.00184553C129.775 -0.00235466 130.869 0.00864614 131.963 0.0348445L132.254 0.0453441C132.59 0.0573437 132.922 0.0723432 133.322 0.0903425C134.918 0.16534 136.007 0.417332 136.963 0.787819C137.953 1.16881 138.787 1.68479 139.621 2.51876C140.383 3.26814 140.973 4.17462 141.35 5.17517C141.721 6.13064 141.973 7.2211 142.048 8.81705C142.066 9.21603 142.081 9.54902 142.093 9.88501L142.102 10.176C142.128 11.2698 142.14 12.3638 142.136 13.4579L142.138 14.5769V16.5418C142.141 17.6364 142.13 18.7309 142.103 19.8252L142.094 20.1162C142.082 20.4522 142.067 20.7836 142.049 21.1841C141.974 22.7801 141.719 23.869 141.35 24.8245C140.975 25.8261 140.384 26.7333 139.621 27.4824C138.871 28.2449 137.964 28.835 136.963 29.2119C136.007 29.5823 134.918 29.8343 133.322 29.9093C132.922 29.9273 132.59 29.9423 132.254 29.9543L131.963 29.9633C130.869 29.99 129.775 30.0015 128.68 29.9978L127.561 29.9993H125.598C124.503 30.003 123.408 29.9915 122.314 29.9648L122.023 29.9558C121.667 29.9429 121.311 29.9279 120.955 29.9108C119.359 29.8358 118.27 29.5808 117.313 29.2119C116.312 28.8359 115.406 28.2456 114.657 27.4824C113.894 26.7329 113.303 25.8258 112.926 24.8245C112.556 23.869 112.304 22.7801 112.229 21.1841C112.212 20.8282 112.197 20.4722 112.184 20.1162L112.176 19.8252C112.148 18.7309 112.136 17.6364 112.139 16.5418V13.4579C112.134 12.3638 112.145 11.2698 112.172 10.176L112.182 9.88501C112.194 9.54902 112.209 9.21603 112.227 8.81705C112.302 7.2196 112.554 6.13214 112.925 5.17517C113.302 4.17413 113.893 3.2679 114.658 2.52026C115.407 1.75641 116.313 1.16517 117.313 0.787819C118.27 0.417332 119.358 0.16534 120.955 0.0903425L122.023 0.0453441L122.314 0.0378446C123.408 0.0102047 124.502 -0.0022962 125.596 0.00034569L128.68 0.00184553ZM127.138 7.50159C126.144 7.48754 125.158 7.67112 124.236 8.04167C123.313 8.41223 122.474 8.96236 121.767 9.6601C121.059 10.3578 120.497 11.1893 120.113 12.1061C119.73 13.0229 119.532 14.0068 119.532 15.0006C119.532 15.9944 119.73 16.9783 120.113 17.8951C120.497 18.8119 121.059 19.6433 121.767 20.3411C122.474 21.0388 123.313 21.5889 124.236 21.9595C125.158 22.3301 126.144 22.5136 127.138 22.4996C129.127 22.4996 131.035 21.7094 132.441 20.303C133.848 18.8965 134.638 16.9889 134.638 14.9998C134.638 13.0108 133.848 11.1032 132.441 9.69671C131.035 8.29024 129.127 7.50159 127.138 7.50159ZM127.138 10.5015C127.736 10.4905 128.33 10.5987 128.885 10.8198C129.441 11.0409 129.946 11.3705 130.373 11.7893C130.8 12.2081 131.139 12.7077 131.37 13.2589C131.601 13.8102 131.721 14.402 131.721 14.9998C131.721 15.5977 131.602 16.1895 131.371 16.7409C131.139 17.2922 130.801 17.7919 130.374 18.2108C129.948 18.6298 129.442 18.9595 128.887 19.1808C128.331 19.4021 127.737 19.5105 127.14 19.4997C125.946 19.4997 124.802 19.0256 123.958 18.1817C123.114 17.3378 122.64 16.1933 122.64 14.9998C122.64 13.8064 123.114 12.6618 123.958 11.818C124.802 10.9741 125.946 10.5 127.14 10.5L127.138 10.5015ZM135.013 5.25167C134.529 5.27103 134.071 5.47689 133.736 5.8261C133.4 6.17532 133.213 6.64082 133.213 7.1251C133.213 7.60938 133.4 8.07488 133.736 8.4241C134.071 8.77332 134.529 8.97917 135.013 8.99854C135.51 8.99854 135.987 8.801 136.339 8.44938C136.69 8.09776 136.888 7.62087 136.888 7.1236C136.888 6.62634 136.69 6.14944 136.339 5.79782C135.987 5.4462 135.51 5.24867 135.013 5.24867V5.25167Z" fill="white"/>
</svg>
