<svg width="83" height="600" viewBox="0 0 83 600" fill="none" xmlns="http://www.w3.org/2000/svg">
<path d="M10.8287 1.17883L20.519 1.17883L20.519 127.857C20.519 129.039 20.9901 130.14 21.8443 130.949C22.7041 131.764 23.835 132.162 25.0099 132.085C27.2726 131.941 28.9381 129.953 28.9381 127.692L28.9381 1.17883L37.2923 1.17883V127.857C37.2923 129.039 37.7634 130.14 38.6176 130.949C39.4774 131.764 40.6083 132.162 41.7832 132.085C44.0459 131.941 45.7114 129.953 45.7114 127.692V1.17883L54.0656 1.17883V127.857C54.0656 129.039 54.5367 130.14 55.3909 130.949C56.2507 131.764 57.3816 132.162 58.5565 132.085C60.8192 131.941 62.4847 129.953 62.4847 127.692V1.17883L72.175 1.17883L72.2289 1.76609C72.2289 1.76619 72.2289 1.76629 72.2289 1.76639C72.3164 2.72342 80.5609 94.5909 81.9781 140.207L81.9783 140.213C82.4845 153.81 74.0772 166.767 60.445 173.176C53.9469 176.229 49.8785 182.793 50.072 189.847C50.072 189.848 50.0721 189.848 50.0721 189.849L59.4653 580.157L59.4654 580.162C59.6081 585.121 57.806 589.778 54.3908 593.327C50.9765 596.87 46.3991 598.821 41.5019 598.821C36.6055 598.821 32.0344 596.87 28.613 593.327C25.1979 589.778 23.3957 585.115 23.5384 580.162L23.5385 580.157L32.9317 189.85C32.9317 189.849 32.9317 189.848 32.9317 189.847C33.132 182.779 29.0555 176.229 22.5587 173.176C9.31705 166.948 1 154.529 1 141.363C1 140.986 1.01246 140.6 1.02563 140.195L1.02567 140.194C2.44287 94.5911 10.6872 2.72441 10.7748 1.76641C10.7748 1.7663 10.7748 1.7662 10.7748 1.76609L10.8287 1.17883Z" fill="#333333" stroke="white" stroke-width="2"/>
</svg>
