<svg width="1728" height="2815" viewBox="0 0 1728 2815" fill="none" xmlns="http://www.w3.org/2000/svg">
<rect width="1728" height="2815" fill="#333333"/>
<g opacity="0.5">
<line x1="-8.74228e-08" y1="126" x2="1728" y2="126" stroke="#910808" stroke-width="2"/>
<line x1="-8.74228e-08" y1="160" x2="1728" y2="160" stroke="#910808" stroke-width="2"/>
<line x1="-8.74228e-08" y1="194" x2="1728" y2="194" stroke="#910808" stroke-width="2"/>
<line x1="-8.74228e-08" y1="228.001" x2="1728" y2="228" stroke="#910808" stroke-width="2"/>
<line x1="-8.74228e-08" y1="262.001" x2="1728" y2="262.001" stroke="#910808" stroke-width="2"/>
<line x1="-8.74228e-08" y1="296.001" x2="1728" y2="296.001" stroke="#910808" stroke-width="2"/>
<line x1="-8.74228e-08" y1="330.001" x2="1728" y2="330.001" stroke="#910808" stroke-width="2"/>
<line x1="-8.74228e-08" y1="364.001" x2="1728" y2="364.001" stroke="#910808" stroke-width="2"/>
<line x1="-8.74228e-08" y1="398.001" x2="1728" y2="398.001" stroke="#910808" stroke-width="2"/>
<line x1="-8.74228e-08" y1="432.002" x2="1728" y2="432.001" stroke="#910808" stroke-width="2"/>
<line x1="-8.74228e-08" y1="466.002" x2="1728" y2="466.002" stroke="#910808" stroke-width="2"/>
<line x1="-8.74228e-08" y1="500.002" x2="1728" y2="500.002" stroke="#910808" stroke-width="2"/>
<line x1="-8.74228e-08" y1="534.002" x2="1728" y2="534.002" stroke="#910808" stroke-width="2"/>
<line x1="-8.74228e-08" y1="568.002" x2="1728" y2="568.002" stroke="#910808" stroke-width="2"/>
<line x1="-8.74228e-08" y1="602.002" x2="1728" y2="602.002" stroke="#910808" stroke-width="2"/>
<line x1="-8.74228e-08" y1="636.002" x2="1728" y2="636.002" stroke="#910808" stroke-width="2"/>
<line x1="-8.74228e-08" y1="670.003" x2="1728" y2="670.002" stroke="#910808" stroke-width="2"/>
<line x1="-8.74228e-08" y1="704.003" x2="1728" y2="704.003" stroke="#910808" stroke-width="2"/>
<line x1="-8.74228e-08" y1="738.003" x2="1728" y2="738.003" stroke="#910808" stroke-width="2"/>
<line x1="-8.74228e-08" y1="772.003" x2="1728" y2="772.003" stroke="#910808" stroke-width="2"/>
<line x1="-8.74228e-08" y1="806.003" x2="1728" y2="806.003" stroke="#910808" stroke-width="2"/>
<line x1="-8.74228e-08" y1="840.003" x2="1728" y2="840.003" stroke="#910808" stroke-width="2"/>
<line x1="-8.74228e-08" y1="874.003" x2="1728" y2="874.003" stroke="#910808" stroke-width="2"/>
<line x1="30" y1="932" x2="29.9999" y2="71.0001" stroke="#910808" stroke-width="2"/>
<line x1="64" y1="932" x2="63.9999" y2="71.0001" stroke="#910808" stroke-width="2"/>
<line x1="98" y1="932" x2="97.9999" y2="71.0001" stroke="#910808" stroke-width="2"/>
<line x1="132" y1="932" x2="132" y2="71.0001" stroke="#910808" stroke-width="2"/>
<line x1="166" y1="932" x2="166" y2="71.0001" stroke="#910808" stroke-width="2"/>
<line x1="200" y1="932" x2="200" y2="71.0001" stroke="#910808" stroke-width="2"/>
<line x1="234" y1="932" x2="234" y2="71.0001" stroke="#910808" stroke-width="2"/>
<line x1="268" y1="932" x2="268" y2="71.0001" stroke="#910808" stroke-width="2"/>
<line x1="302" y1="932" x2="302" y2="71.0001" stroke="#910808" stroke-width="2"/>
<line x1="336" y1="932" x2="336" y2="71.0001" stroke="#910808" stroke-width="2"/>
<line x1="370" y1="932" x2="370" y2="71.0001" stroke="#910808" stroke-width="2"/>
<line x1="404" y1="932" x2="404" y2="71.0001" stroke="#910808" stroke-width="2"/>
<line x1="438" y1="932" x2="438" y2="71.0001" stroke="#910808" stroke-width="2"/>
<line x1="472" y1="932" x2="472" y2="71.0001" stroke="#910808" stroke-width="2"/>
<line x1="506.002" y1="932" x2="506.002" y2="71.0001" stroke="#910808" stroke-width="2"/>
<line x1="540.002" y1="932" x2="540.002" y2="71.0001" stroke="#910808" stroke-width="2"/>
<line x1="574.002" y1="932" x2="574.002" y2="71.0001" stroke="#910808" stroke-width="2"/>
<line x1="608.002" y1="932" x2="608.002" y2="71.0001" stroke="#910808" stroke-width="2"/>
<line x1="642.002" y1="932" x2="642.002" y2="71.0001" stroke="#910808" stroke-width="2"/>
<line x1="676.002" y1="932" x2="676.002" y2="71.0001" stroke="#910808" stroke-width="2"/>
<line x1="710.002" y1="932" x2="710.002" y2="71.0001" stroke="#910808" stroke-width="2"/>
<line x1="744.002" y1="932" x2="744.002" y2="71" stroke="#910808" stroke-width="2"/>
<line x1="778.002" y1="932" x2="778.002" y2="71" stroke="#910808" stroke-width="2"/>
<line x1="812.002" y1="932" x2="812.002" y2="71" stroke="#910808" stroke-width="2"/>
<line x1="846.002" y1="932" x2="846.002" y2="71" stroke="#910808" stroke-width="2"/>
<line x1="880.002" y1="932" x2="880.002" y2="71" stroke="#910808" stroke-width="2"/>
<line x1="914.002" y1="932" x2="914.002" y2="71" stroke="#910808" stroke-width="2"/>
<line x1="948.002" y1="932" x2="948.002" y2="71" stroke="#910808" stroke-width="2"/>
<line x1="982.002" y1="932" x2="982.002" y2="71" stroke="#910808" stroke-width="2"/>
<line x1="1016" y1="932" x2="1016" y2="71" stroke="#910808" stroke-width="2"/>
<line x1="1050" y1="932" x2="1050" y2="71" stroke="#910808" stroke-width="2"/>
<line x1="1084" y1="932" x2="1084" y2="71" stroke="#910808" stroke-width="2"/>
<line x1="1118" y1="932" x2="1118" y2="71" stroke="#910808" stroke-width="2"/>
<line x1="1152" y1="932" x2="1152" y2="71" stroke="#910808" stroke-width="2"/>
<line x1="1186" y1="932" x2="1186" y2="71" stroke="#910808" stroke-width="2"/>
<line x1="1220" y1="932" x2="1220" y2="71" stroke="#910808" stroke-width="2"/>
<line x1="1254" y1="932" x2="1254" y2="71" stroke="#910808" stroke-width="2"/>
<line x1="1288" y1="932" x2="1288" y2="71" stroke="#910808" stroke-width="2"/>
<line x1="1322" y1="932" x2="1322" y2="71" stroke="#910808" stroke-width="2"/>
<line x1="1356" y1="932" x2="1356" y2="71" stroke="#910808" stroke-width="2"/>
<line x1="1390" y1="932" x2="1390" y2="71" stroke="#910808" stroke-width="2"/>
<line x1="1424" y1="932" x2="1424" y2="71" stroke="#910808" stroke-width="2"/>
<line x1="1458" y1="932" x2="1458" y2="71" stroke="#910808" stroke-width="2"/>
<line x1="1492" y1="932" x2="1492" y2="71" stroke="#910808" stroke-width="2"/>
<line x1="1526" y1="932" x2="1526" y2="71" stroke="#910808" stroke-width="2"/>
<line x1="1560" y1="932" x2="1560" y2="71" stroke="#910808" stroke-width="2"/>
<line x1="1594" y1="932" x2="1594" y2="71" stroke="#910808" stroke-width="2"/>
<line x1="1628" y1="932" x2="1628" y2="71" stroke="#910808" stroke-width="2"/>
<line x1="1662" y1="932" x2="1662" y2="71" stroke="#910808" stroke-width="2"/>
<line x1="1696" y1="932" x2="1696" y2="71" stroke="#910808" stroke-width="2"/>
</g>
</svg>
