<svg width="118" height="590" viewBox="0 0 118 590" fill="none" xmlns="http://www.w3.org/2000/svg">
<path d="M78.0731 176.184L78.0728 176.184C71.9684 178.097 67.8223 183.805 67.9932 190.093L77.0949 570.182L77.095 570.186C77.2327 575.107 75.4267 579.753 71.9861 583.282C68.5448 586.812 63.9389 588.75 59 588.75C54.0611 588.75 49.4552 586.812 46.0138 583.282C42.5732 579.753 40.7673 575.107 40.905 570.186L40.9051 570.182L50.0002 190.165C50.0002 190.165 50.0002 190.164 50.0002 190.163C50.1701 183.877 46.0387 178.183 39.9545 176.27C32.6971 173.987 22.9812 169.081 15.0734 158.525C7.16756 147.971 0.99998 131.679 0.999979 106.5C0.999978 82.7863 7.31346 56.3716 17.8715 35.8791L16.9825 35.4211L17.8715 35.879C29.502 13.3022 44.1666 1.25 59 1.25C73.8333 1.25 88.4979 13.3022 100.128 35.879L101.017 35.4211L100.128 35.8791C110.686 56.3716 117 82.7863 117 106.5C117 131.669 110.836 147.946 102.935 158.484C95.0325 169.024 85.3236 173.915 78.0731 176.184Z" fill="#333333" stroke="white" stroke-width="2"/>
</svg>
